# xmcd
# 
# Track frame offsets:
#     150
#     12285
#     23639
#     37091
#     52221
#     69880
#     85134
#     95228
#     111553
#     123159
#     136732
#     150748
#     166065
# 
# Disc length: 2444
# 
# Revision: 1
# Processed by: cddbd v1.5.2PL0 Copyright (c) Steve Scherf et al.
# Submitted via: fre:ac v1.0.17
# 
DISCID=a7098a0d
DTITLE=Karise Eden - My Journey
DYEAR=2012
DGENRE=Blues
TTITLE0=It's a man's world
TTITLE1=Back to black
TTITLE2=Nothing's real but love
TTITLE3=Landslide
TTITLE4=Hallelujah
TTITLE5=Stay with me baby
TTITLE6=I was your girl
TTITLE7=You won't let me
TTITLE8=Hound dog
TTITLE9=The dock of the bay
TTITLE10=The weight
TTITLE11=I'd rather go blind
TTITLE12=Move over
EXTD=
EXTT0=
EXTT1=
EXTT2=
EXTT3=
EXTT4=
EXTT5=
EXTT6=
EXTT7=
EXTT8=
EXTT9=
EXTT10=
EXTT11=
EXTT12=
PLAYORDER=
